<svg xmlns="http://www.w3.org/2000/svg" xmlns:xlink="http://www.w3.org/1999/xlink" version="1.1" x="0px" y="0px" viewBox="0 0 64 80" style="enable-background:new 0 0 64 64;" xml:space="preserve"><g><path d="M44,55c2.757,0,5-2.243,5-5s-2.243-5-5-5s-5,2.243-5,5S41.243,55,44,55z M44,47c1.654,0,3,1.346,3,3s-1.346,3-3,3   s-3-1.346-3-3S42.346,47,44,47z"/><path d="M55,33V23h-9v-4h2v-3.877c0-3.48-0.428-6.958-1.272-10.335C46.17,2.558,44.176,1,41.877,1h-5.754   c-2.299,0-4.293,1.558-4.851,3.787C30.6,7.478,30.204,10.232,30.065,13H22c-4.962,0-9,4.038-9,9s4.038,9,9,9h1v2h4v2H16   c-3.86,0-7,3.14-7,7v10c0,3.86,3.14,7,7,7h9v4h10v-4h4v4h10v-4h6V35h-4v-2H55z M44,20h-2v2h2v1H34v-1h6v-2h-6v-1h10V20z M32,15.123   c0-3.317,0.408-6.631,1.213-9.851v0C33.547,3.935,34.744,3,36.123,3h5.754c1.379,0,2.576,0.935,2.91,2.272   C45.592,8.492,46,11.806,46,15.123V17H32V15.123z M32,19v4h-9v2h-1c-1.654,0-3-1.346-3-3s1.346-3,3-3h8h1H32z M22,29   c-3.86,0-7-3.14-7-7s3.14-7,7-7h8.004c0,0.041-0.004,0.082-0.004,0.123V17h-8c-2.757,0-5,2.243-5,5s2.243,5,5,5h1v2H22z M25,25h28   v6H25V25z M11,52V42c0-2.757,2.243-5,5-5h1v20h-1C13.243,57,11,54.757,11,52z M33,61h-6v-2h6V61z M47,61h-6v-2h6V61z M53,57H25v-2   h-2v2h-4V37h4v16h2V37h28V57z M49,35H29v-2h20V35z"/></g><text x="0" y="79" fill="#000000" font-size="5px" font-weight="bold" font-family="'Helvetica Neue', Helvetica, Arial-Unicode, Arial, Sans-serif">Created by Eucalyp</text><text x="0" y="84" fill="#000000" font-size="5px" font-weight="bold" font-family="'Helvetica Neue', Helvetica, Arial-Unicode, Arial, Sans-serif">from the Noun Project</text></svg>