<svg xmlns="http://www.w3.org/2000/svg" xmlns:xlink="http://www.w3.org/1999/xlink" version="1.1" x="0px" y="0px" viewBox="0 0 100 125" enable-background="new 0 0 100 100" xml:space="preserve"><path d="M75.086,34.381c-2.062-0.856-4.482-0.425-6.097,1.069l-12.007,8.055c-1.745-1.875-4.225-3.057-6.982-3.057  c-2.757,0-5.237,1.182-6.982,3.057L31.01,35.447c-1.616-1.495-4.042-1.928-6.108-1.06c-2.116,0.9-3.483,2.968-3.483,5.268v20.684  c0,2.298,1.367,4.365,3.496,5.271c0.713,0.295,1.46,0.445,2.222,0.445c1.446,0,2.816-0.537,3.874-1.515l12.008-8.056  c1.744,1.875,4.225,3.057,6.982,3.057c2.757,0,5.237-1.181,6.982-3.056l12.008,8.057c1.056,0.977,2.425,1.512,3.873,1.512  c0.769,0,1.519-0.151,2.235-0.452c2.116-0.9,3.483-2.968,3.483-5.268V39.651C78.582,37.353,77.214,35.286,75.086,34.381z   M56.548,49.996c0,0.811-0.155,1.584-0.426,2.301l-3.43-2.301l3.43-2.301C56.393,48.412,56.548,49.185,56.548,49.996z M50,43.448  c1.718,0,3.279,0.671,4.449,1.757L50,48.189l-4.448-2.985C46.721,44.118,48.282,43.448,50,43.448z M43.878,52.297  c-0.27-0.717-0.425-1.49-0.425-2.301c0-0.811,0.155-1.584,0.425-2.301l3.43,2.301L43.878,52.297z M29.235,62.12  c-0.075,0.05-0.146,0.107-0.21,0.17c-0.77,0.748-1.966,0.962-2.949,0.555c-1.007-0.428-1.658-1.412-1.658-2.505V39.655  c0-1.095,0.65-2.079,1.651-2.505c0.34-0.143,0.699-0.215,1.067-0.215c0.711,0,1.381,0.271,1.888,0.763  c0.065,0.063,0.135,0.12,0.21,0.17l12.109,8.125c-0.566,1.219-0.891,2.572-0.891,4.002c0,1.43,0.325,2.782,0.891,4.001L29.235,62.12  z M50,56.543c-1.718,0-3.279-0.67-4.448-1.757L50,51.802l4.448,2.985C53.279,55.873,51.718,56.543,50,56.543z M75.582,60.336  c0,1.095-0.65,2.079-1.651,2.504c-0.998,0.42-2.187,0.199-2.955-0.548c-0.065-0.063-0.135-0.12-0.21-0.17l-12.109-8.125  c0.566-1.219,0.891-2.572,0.891-4.002c0-1.43-0.325-2.783-0.891-4.002l12.108-8.123c0.075-0.05,0.146-0.107,0.21-0.17  c0.77-0.748,1.968-0.96,2.949-0.554c1.007,0.428,1.657,1.412,1.657,2.505V60.336z"/><text x="0" y="115" fill="#000000" font-size="5px" font-weight="bold" font-family="'Helvetica Neue', Helvetica, Arial-Unicode, Arial, Sans-serif">Created by Marco Olgio</text><text x="0" y="120" fill="#000000" font-size="5px" font-weight="bold" font-family="'Helvetica Neue', Helvetica, Arial-Unicode, Arial, Sans-serif">from the Noun Project</text></svg>