<svg xmlns:dc="http://purl.org/dc/elements/1.1/" xmlns:cc="http://creativecommons.org/ns#" xmlns:rdf="http://www.w3.org/1999/02/22-rdf-syntax-ns#" xmlns:svg="http://www.w3.org/2000/svg" xmlns="http://www.w3.org/2000/svg" xmlns:sodipodi="http://sodipodi.sourceforge.net/DTD/sodipodi-0.dtd" xmlns:inkscape="http://www.inkscape.org/namespaces/inkscape" version="1.1" x="0px" y="0px" viewBox="0 0 128 160" enable-background="new 0 0 128 128" xml:space="preserve"><path style="" d="M 66 27.300781 C 63.2 27.300781 61 29.500781 61 32.300781 C 61 35.100781 63.2 37.300781 66 37.300781 L 77.5 37.300781 C 80.3 37.300781 82.5 35.100781 82.5 32.300781 C 82.5 29.500781 80.3 27.300781 77.5 27.300781 L 66 27.300781 z M 97.199219 27.300781 C 94.399219 27.300781 92.199219 29.600781 92.199219 32.300781 C 92.199219 35.100781 94.399219 37.300781 97.199219 37.300781 L 108.69922 37.300781 C 111.49922 37.300781 113.69922 35.100781 113.69922 32.300781 C 113.69922 29.500781 111.49922 27.300781 108.69922 27.300781 L 97.199219 27.300781 z M 87.300781 32.199219 C 85.600781 32.199219 84.300781 33.499219 84.300781 35.199219 L 84.300781 56.400391 L 82.300781 56.400391 C 77.900781 56.400391 74.300781 60.000391 74.300781 64.400391 L 74.300781 107.40039 C 71.900781 106.30039 70.300781 103.89961 70.300781 101.09961 L 70.300781 85.300781 C 70.300781 78.100781 64.500781 72.300781 57.300781 72.300781 C 57.100781 72.300781 56.799609 72.300391 56.599609 72.400391 C 56.399609 72.400391 56.200391 72.300781 55.900391 72.300781 L 37.300781 72.300781 C 35.600781 72.300781 34.300781 73.600781 34.300781 75.300781 C 34.300781 77.000781 35.600781 78.300781 37.300781 78.300781 L 56 78.300781 C 56.2 78.300781 56.499219 78.299219 56.699219 78.199219 C 56.899219 78.199219 57.100391 78.300781 57.400391 78.300781 C 61.300391 78.300781 64.400391 81.400781 64.400391 85.300781 L 64.400391 101 C 64.400391 107.1 68.700391 112.29961 74.400391 113.59961 L 74.400391 118 L 67.400391 118 L 50 118 C 48.3 118 47 119.3 47 121 C 47 122.7 48.3 124 50 124 L 67.300781 124 L 97 124 L 107.30078 124 C 109.00078 124 110.30078 122.7 110.30078 121 C 110.30078 119.3 109.00078 118 107.30078 118 L 100.30078 118 L 100.30078 64.300781 C 100.30078 59.900781 96.700781 56.300781 92.300781 56.300781 L 90.300781 56.300781 L 90.300781 35.199219 C 90.300781 33.499219 89.000781 32.199219 87.300781 32.199219 z M 82.300781 62.300781 L 88.300781 62.300781 C 89.400781 62.300781 90.300781 63.200781 90.300781 64.300781 L 90.300781 118 L 80.300781 118 L 80.300781 64.300781 C 80.300781 63.200781 81.200781 62.300781 82.300781 62.300781 z M 35 118.07422 C 34.225 118.07422 33.450391 118.35039 32.900391 118.90039 C 32.300391 119.50039 32 120.2 32 121 C 32 121.8 32.300391 122.59961 32.900391 123.09961 C 33.500391 123.69961 34.2 124 35 124 C 35.8 124 36.599609 123.69961 37.099609 123.09961 C 37.699609 122.49961 38 121.8 38 121 C 38 120.2 37.699609 119.40039 37.099609 118.90039 C 36.549609 118.35039 35.775 118.07422 35 118.07422 z " fill="#000000" stroke="none"/><text x="0" y="143" fill="#000000" font-size="5px" font-weight="bold" font-family="'Helvetica Neue', Helvetica, Arial-Unicode, Arial, Sans-serif">Created by Kokota</text><text x="0" y="148" fill="#000000" font-size="5px" font-weight="bold" font-family="'Helvetica Neue', Helvetica, Arial-Unicode, Arial, Sans-serif">from the Noun Project</text></svg>