<svg xmlns="http://www.w3.org/2000/svg" data-name="Layer 1" viewBox="0 0 100 125" x="0px" y="0px"><title>Artboard 23</title><path d="M37.52,69.16,26.84,61a3.07,3.07,0,0,0-4.94,2.45v3L9,66.92a3,3,0,0,0-2.93,3v4.51a3,3,0,0,0,2.93,3l13,.42v3a3.07,3.07,0,0,0,4.94,2.45l10.68-8.13a3.82,3.82,0,0,0,0-6.07Z"/><path d="M47,37.73A8.63,8.63,0,0,1,46.24,41l-6.91,15.5a3.21,3.21,0,0,0,1.92,4.35l4.36,1.42A2,2,0,0,1,47,64.15v16a6.65,6.65,0,0,0,6.65,6.65h14.3V98.15H93.48v-95a36.5,36.5,0,0,0-9.42-1.27A37,37,0,0,0,47,37.73Z"/><text x="0" y="115" fill="#000000" font-size="5px" font-weight="bold" font-family="'Helvetica Neue', Helvetica, Arial-Unicode, Arial, Sans-serif">Created by Gregor Cresnar</text><text x="0" y="120" fill="#000000" font-size="5px" font-weight="bold" font-family="'Helvetica Neue', Helvetica, Arial-Unicode, Arial, Sans-serif">from the Noun Project</text></svg>