<svg xmlns="http://www.w3.org/2000/svg" xmlns:xlink="http://www.w3.org/1999/xlink" version="1.1" x="0px" y="0px" viewBox="0 0 91 113.75" enable-background="new 0 0 91 91" xml:space="preserve"><path d="M60.293,32.696c0.005-0.043,0.025-0.08,0.025-0.124c0-0.071-0.028-0.134-0.041-0.201c-0.043-0.812-0.1-1.538-0.172-2.143  c-0.449-3.775-2.802-7.766-4.709-11.004c-0.836-1.417-1.783-3.022-1.968-3.721c-0.328-1.245-0.485-2.604-0.56-3.552  c0.399-0.406,0.635-0.959,0.635-1.554V5.904c0-2.262-1.84-4.102-4.102-4.102h-5.915c-1.098,0-2.129,0.428-2.904,1.205  c-0.774,0.775-1.199,1.805-1.197,2.896v4.494c0,0.595,0.235,1.147,0.635,1.554c-0.074,0.945-0.232,2.305-0.563,3.552  c-0.188,0.709-1.139,2.322-1.994,3.772c-1.887,3.201-4.234,7.185-4.683,10.951c-0.072,0.602-0.128,1.326-0.171,2.139  c-0.014,0.069-0.042,0.133-0.042,0.206c0,0.046,0.021,0.084,0.026,0.129c-0.17,3.524-0.12,8.524-0.081,12.401l0.007,0.683  c0.016,1.64,0.029,3.05,0.019,4.027c-0.01,1.195,0.202,2.37,0.631,3.492c0.66,1.733,2.196,6.158,2.196,9.805  c0,2.77-0.635,5.999-1.194,8.848c-0.501,2.548-0.933,4.749-0.933,6.518c0,3.907,0.924,6.676,2.823,8.466  c1.037,0.976,2.411,1.492,3.976,1.492c0.992,0,2.017-0.222,2.885-0.623c0.014-0.006,0.028-0.013,0.042-0.019  c0.711,0.579,1.666,1.148,2.812,1.337c0.207,0.051,0.429,0.074,0.652,0.065c0.044,0.003,0.089,0.004,0.135,0.004  c0.18,0,0.359-0.022,0.546-0.069c1.155-0.188,2.134-0.765,2.866-1.351c0.023,0.012,0.048,0.022,0.072,0.033  c0.853,0.394,1.904,0.618,2.885,0.618c1.512,0,2.857-0.515,3.891-1.488c1.902-1.788,2.827-4.558,2.827-8.466  c0-1.754-0.431-3.945-0.943-6.559c-0.556-2.845-1.187-6.068-1.187-8.807c0-3.646,1.536-8.071,2.196-9.804  c0.429-1.123,0.641-2.298,0.631-3.496c-0.011-0.975,0.003-2.385,0.019-4.024l0.005-0.505C60.413,41.347,60.467,36.269,60.293,32.696  z M34.771,45.764l-0.007-0.684c-0.035-3.535-0.08-8.016,0.04-11.383h23.28c0.123,3.415,0.075,7.97,0.037,11.561l-0.005,0.506  c-0.014,1.463-0.025,2.726-0.021,3.684H34.791C34.796,48.488,34.784,47.226,34.771,45.764z M35.729,27.654  c0.071,0.014,0.138,0.043,0.214,0.043h21c0.076,0,0.143-0.029,0.215-0.043c0.344,0.965,0.604,1.921,0.713,2.841  c0.034,0.286,0.063,0.61,0.091,0.952H34.925c0.027-0.343,0.057-0.668,0.091-0.953C35.125,29.575,35.386,28.619,35.729,27.654z   M39.417,20.393c1.046-1.772,1.949-3.304,2.217-4.313c0.305-1.154,0.476-2.353,0.576-3.382h4.89c0.621,0,1.125-0.504,1.125-1.125  s-0.504-1.125-1.125-1.125h-5.383c-0.028-0.015-0.051-0.036-0.081-0.049V5.902c-0.001-0.492,0.19-0.956,0.54-1.305  c0.351-0.352,0.816-0.545,1.312-0.545h5.915c1.021,0,1.852,0.831,1.852,1.852l0.021,4.463c-0.441,0.183-0.719,0.624-0.692,1.102  c0.065,1.19,0.235,2.957,0.671,4.609c0.265,1,1.164,2.524,2.223,4.32c0.91,1.543,1.93,3.279,2.767,5.049H36.646  C37.482,23.681,38.503,21.944,39.417,20.393z M55.271,63.109c0,2.957,0.652,6.294,1.243,9.315c0.476,2.422,0.887,4.515,0.887,6.05  c0,3.254-0.693,5.486-2.119,6.827c-0.617,0.582-1.408,0.877-2.349,0.877c-0.974,0-1.733-0.314-1.947-0.413  c-0.276-0.126-0.507-0.238-0.698-0.332c-0.423-0.21-0.934-0.128-1.275,0.199c-0.43,0.414-1.301,1.131-2.298,1.28  c-0.045,0.006-0.114,0.021-0.159,0.034c-0.033-0.004-0.078-0.005-0.122-0.005c-0.04,0-0.078,0.001-0.107,0.003  c-0.049-0.014-0.098-0.024-0.147-0.032c-0.937-0.142-1.727-0.762-2.225-1.258c-0.341-0.339-0.86-0.424-1.293-0.21  c-0.187,0.092-0.415,0.199-0.682,0.322c-0.578,0.268-1.268,0.415-1.94,0.415c-0.684,0-1.66-0.153-2.433-0.881  c-1.424-1.341-2.116-3.574-2.116-6.827c0-1.55,0.412-3.651,0.89-6.084c0.58-2.949,1.237-6.292,1.237-9.281  c0-4.021-1.64-8.757-2.345-10.606c-0.101-0.265-0.181-0.534-0.25-0.806h22.844c-0.069,0.271-0.148,0.541-0.25,0.807  C56.91,54.353,55.271,59.089,55.271,63.109z"/><text x="0" y="106" fill="#000000" font-size="5px" font-weight="bold" font-family="'Helvetica Neue', Helvetica, Arial-Unicode, Arial, Sans-serif">Created by BomSymbols</text><text x="0" y="111" fill="#000000" font-size="5px" font-weight="bold" font-family="'Helvetica Neue', Helvetica, Arial-Unicode, Arial, Sans-serif">from the Noun Project</text></svg>