%
M48
M72
T01C0.03150
T02C0.03200
T03C0.03346
T04C0.03400
T05C0.03500
T06C0.04000
T07C0.05000
T08C0.05500
T09C0.08000
T10C0.10000
T11C0.12000
T12C0.16000
T13C0.26000
%
T01
X141500Y230448
X183000Y230948
X183000Y240948
X183000Y250948
X183000Y260948
X183000Y270948
X183000Y280948
X183000Y290948
X183000Y300948
X183000Y310948
X183000Y320948
X183000Y330948
X183000Y340948
X183000Y350948
X183000Y360948
X183000Y370948
X243000Y370948
X243000Y360948
X243000Y350948
X243000Y340948
X243000Y330948
X243000Y320948
X243000Y310948
X243000Y300948
X243000Y290948
X243000Y280948
X243000Y270948
X243000Y260948
X243000Y250948
X243000Y240948
X243000Y230948
X123500Y302448
X258000Y370948
T02
X213000Y328448
X199500Y332948
X199500Y299948
X237000Y325448
X262500Y296948
X270000Y310959
X326000Y301448
X331500Y308948
X306000Y254948
X343000Y138948
X96000Y256448
X73000Y271448
X57000Y304448
T03
X38000Y262948
X108000Y358448
X145000Y265448
X191500Y240948
X275500Y336948
X283000Y345948
X325000Y326948
X343295Y384138
T04
X262500Y303948
X234000Y280948
X234000Y270948
X234000Y260948
X235000Y195948
X230000Y195948
X225000Y195948
X220000Y195948
X215000Y195948
X210000Y195948
X205000Y195948
X200000Y195948
X195000Y195948
X190000Y195948
X185000Y195948
X180000Y195948
X175000Y195948
X170000Y195948
X165000Y195948
X160000Y195948
X155000Y195948
X150000Y195948
X145000Y195948
X140000Y195948
X135000Y195948
X130000Y195948
X125000Y195948
X120000Y195948
X115000Y195948
X110000Y195948
X105000Y195948
X100000Y195948
X95000Y195948
X90000Y195948
X85000Y195948
X80000Y195948
X75000Y195948
X70000Y195948
X65000Y195948
X60000Y195948
X55000Y195948
X50000Y195948
X45000Y195948
X40000Y195948
X23000Y195948
X17000Y195948
X28000Y224948
X30000Y274948
X43500Y327948
X153787Y327798
X158000Y249948
X240000Y195948
X245000Y195948
X250000Y195948
X255000Y195948
X260000Y195948
X265000Y195948
X270000Y195948
X275000Y195948
X280000Y195948
X285000Y195948
X290000Y195948
X295000Y195948
X300000Y195948
X318000Y195948
X328000Y195948
X338000Y195948
X347000Y195948
X358000Y195948
X368000Y195948
X373000Y195948
X337000Y155548
X273000Y131548
X228000Y146548
X163000Y146548
X135500Y161548
X68000Y151548
X50000Y84048
X100500Y36548
X158000Y39048
X170500Y29048
X228000Y36548
X295500Y29048
X353000Y36548
X379000Y270948
X43000Y29048
T05
X133001Y10277
X133000Y71548
X265500Y84048
X265500Y39048
T06
X283000Y167048
X293000Y167048
X303000Y167048
X313000Y167048
X323000Y167048
X333000Y167048
X343000Y167048
X353000Y167048
X353000Y225448
X343000Y225448
X333000Y225448
X323000Y225448
X313000Y225448
X303000Y225448
X293000Y225448
X283000Y225448
X360500Y285948
X360500Y295948
X360500Y305948
X360500Y315948
X360500Y325948
X360500Y335948
X360500Y345948
X360500Y355948
X108000Y167048
X98000Y167048
X88000Y167048
X78000Y167048
X68000Y167048
X58000Y167048
X48000Y167048
X38000Y167048
X30500Y285948
X30500Y295948
X30500Y305948
X30500Y315948
X30500Y325948
X30500Y335948
X30500Y345948
X30500Y355948
T07
X160500Y275448
X160500Y265448
X260500Y336948
X260500Y346948
T08
X260500Y356948
X160500Y285448
T09
X143000Y352948
X143000Y370948
X165500Y96048
X165500Y92048
X165500Y88048
X165500Y84048
X165500Y80048
X165500Y76048
X165500Y72048
X225500Y72048
X225500Y76048
X225500Y80048
X225500Y84048
X225500Y88048
X225500Y92048
X225500Y96048
X293000Y96048
X293000Y92048
X293000Y88048
X293000Y84048
X293000Y80048
X293000Y76048
X293000Y72048
X353000Y72048
X353000Y76048
X353000Y80048
X353000Y84048
X353000Y88048
X353000Y92048
X353000Y96048
X98000Y96048
X98000Y92048
X98000Y88048
X98000Y84048
X98000Y80048
X98000Y76048
X98000Y72048
X38000Y72048
X38000Y76048
X38000Y80048
X38000Y84048
X38000Y88048
X38000Y92048
X38000Y96048
T10
X58000Y282948
X128000Y282948
X268000Y282948
X338000Y282948
T11
X18000Y16548
X18000Y179548
X18000Y212948
X18000Y375948
X373000Y375948
X373000Y212948
X373000Y179548
X373000Y16548
T12
X200500Y151548
T13
X303000Y282948
X93000Y282948
M30
