<svg xmlns="http://www.w3.org/2000/svg" xmlns:xlink="http://www.w3.org/1999/xlink" version="1.1" x="0px" y="0px" viewBox="0 0 100 125" enable-background="new 0 0 100 100" xml:space="preserve"><path fill="#000000" d="M8.914,50.791c0.008,0.404,0.011,0.811,0.031,1.213c0.016,0.331,0.045,0.66,0.069,0.989  c0.023,0.32,0.043,0.644,0.073,0.964c0.043,0.435,0.098,0.868,0.153,1.299c0.026,0.202,0.049,0.406,0.078,0.607  c0.072,0.497,0.156,0.991,0.246,1.482c0.022,0.129,0.044,0.258,0.068,0.386c0.104,0.536,0.218,1.069,0.343,1.6  c0.018,0.078,0.035,0.157,0.054,0.236c0.135,0.559,0.281,1.115,0.438,1.668c0.014,0.047,0.027,0.096,0.041,0.145  c0.165,0.567,0.341,1.132,0.529,1.692c0.012,0.034,0.023,0.069,0.035,0.104c0.191,0.562,0.395,1.12,0.609,1.673  c0.016,0.039,0.031,0.078,0.047,0.118c0.212,0.54,0.435,1.076,0.67,1.607c0.028,0.064,0.058,0.128,0.087,0.192  c0.224,0.5,0.457,0.995,0.7,1.485c0.058,0.116,0.118,0.23,0.178,0.346c0.22,0.433,0.445,0.862,0.681,1.288  c0.113,0.204,0.232,0.405,0.35,0.607c0.19,0.33,0.38,0.66,0.579,0.984c0.217,0.352,0.442,0.698,0.67,1.043  c0.11,0.169,0.218,0.34,0.331,0.507c1.107,1.63,2.329,3.177,3.653,4.628c-0.726-9.768,5.874-23.636,12.376-37.205  C17.776,43.34,10.762,49.063,8.914,50.791z"/><path fill="#000000" d="M34.334,27.072c-2.649-4.196-10.299-5.372-13.939-5.532c-5.719,5.942-9.676,13.587-11.006,22.096  c-0.007,0.049-0.017,0.097-0.024,0.146c-0.087,0.575-0.158,1.155-0.222,1.739c-0.002,0.017-0.004,0.034-0.006,0.051  c4.172-3.005,12.112-7.379,24.933-9.495C35.658,32.341,35.75,29.314,34.334,27.072z"/><path fill="#000000" d="M64.301,41.798c-0.345-0.721-0.686-1.433-1.027-2.146c-3.418-0.486-7.185-0.8-11.316-0.876v52.262  c8.101-0.382,15.589-3.124,21.806-7.543C81.104,76.88,72.186,58.253,64.301,41.798z"/><path fill="#000000" d="M68.005,40.469c6.498,13.564,13.092,27.424,12.367,37.188c1.324-1.451,2.545-2.998,3.653-4.628  c0.112-0.167,0.22-0.338,0.33-0.507c0.228-0.345,0.453-0.691,0.67-1.043c0.199-0.324,0.39-0.654,0.579-0.984  c0.117-0.202,0.236-0.403,0.351-0.607c0.234-0.426,0.46-0.855,0.681-1.288c0.059-0.115,0.119-0.229,0.177-0.346  c0.243-0.49,0.477-0.985,0.7-1.485c0.029-0.064,0.06-0.128,0.087-0.192c0.235-0.531,0.459-1.067,0.671-1.607  c0.016-0.04,0.031-0.079,0.046-0.118c0.215-0.553,0.418-1.111,0.609-1.673c0.012-0.035,0.023-0.07,0.035-0.104  c0.188-0.561,0.364-1.125,0.529-1.692c0.014-0.049,0.027-0.098,0.041-0.145c0.157-0.553,0.304-1.109,0.438-1.668  c0.019-0.079,0.036-0.158,0.054-0.236c0.125-0.53,0.24-1.063,0.343-1.6c0.024-0.128,0.046-0.257,0.069-0.386  c0.09-0.491,0.173-0.985,0.245-1.482c0.029-0.201,0.052-0.405,0.078-0.607c0.056-0.431,0.111-0.864,0.153-1.299  c0.03-0.32,0.051-0.644,0.073-0.964c0.024-0.329,0.054-0.658,0.07-0.989c0.02-0.399,0.022-0.804,0.03-1.205  C89.229,49.083,82.163,43.367,68.005,40.469z"/><path fill="#000000" d="M90.857,45.521c-0.063-0.584-0.134-1.164-0.222-1.739c-0.008-0.049-0.017-0.097-0.024-0.146  c-1.33-8.509-5.286-16.153-11.006-22.096c-3.641,0.16-11.289,1.336-13.939,5.532c-1.416,2.242-1.324,5.269,0.265,9.004  c12.82,2.116,20.761,6.49,24.933,9.495C90.861,45.555,90.859,45.537,90.857,45.521z"/><path fill="#000000" d="M48.043,38.775c-4.132,0.075-7.897,0.385-11.312,0.865c-0.343,0.718-0.686,1.433-1.032,2.157  c-7.885,16.455-16.804,35.082-9.462,41.696c6.217,4.419,13.705,7.161,21.806,7.543V38.775z"/><path fill="#000000" d="M48.043,34.855V8.963c-8.973,0.423-17.196,3.737-23.77,9.026c4.34,0.643,10.449,2.367,13.371,6.994  c1.83,2.897,2.099,6.414,0.819,10.484C41.426,35.131,44.615,34.915,48.043,34.855z"/><path fill="#000000" d="M51.957,34.855c3.428,0.06,6.617,0.275,9.579,0.612c-1.279-4.07-1.01-7.587,0.819-10.484  c2.923-4.628,9.033-6.353,13.371-6.995C69.153,12.7,60.93,9.386,51.957,8.963V34.855z"/><text x="0" y="115" fill="#000000" font-size="5px" font-weight="bold" font-family="'Helvetica Neue', Helvetica, Arial-Unicode, Arial, Sans-serif">Created by Royyan Wijaya</text><text x="0" y="120" fill="#000000" font-size="5px" font-weight="bold" font-family="'Helvetica Neue', Helvetica, Arial-Unicode, Arial, Sans-serif">from the Noun Project</text></svg>