<svg xmlns:dc="http://purl.org/dc/elements/1.1/" xmlns:cc="http://creativecommons.org/ns#" xmlns:rdf="http://www.w3.org/1999/02/22-rdf-syntax-ns#" xmlns:svg="http://www.w3.org/2000/svg" xmlns="http://www.w3.org/2000/svg" xmlns:sodipodi="http://sodipodi.sourceforge.net/DTD/sodipodi-0.dtd" xmlns:inkscape="http://www.inkscape.org/namespaces/inkscape" viewBox="0 0 8.4666665 10.583333625" version="1.1" x="0px" y="0px"><g transform="translate(0,-288.53332)"><path style="display:inline;opacity:1;fill:#000000;fill-opacity:1;stroke:none;stroke-width:0.99999994;stroke-linecap:round;stroke-linejoin:round;stroke-miterlimit:4;stroke-dasharray:none;stroke-opacity:1" d="m 4.2806116,289.06303 a 3.7039681,3.7039683 0 0 0 -0.3699933,0.014 3.7039681,3.7039683 0 0 0 -3.36724638,4.01267 3.7039681,3.7039683 0 0 0 4.01269738,3.36671 3.7039681,3.7039683 0 0 0 3.3672199,-4.01267 3.7039681,3.7039683 0 0 0 -3.6426776,-3.38068 z m -0.047519,1.71929 a 1.9843751,1.9843752 0 0 1 1.9843751,1.98438 1.9843751,1.9843752 0 0 1 -1.9843751,1.98437 1.9843751,1.9843752 0 0 1 -1.984375,-1.98437 1.9843751,1.9843752 0 0 1 1.984375,-1.98438 z"/><path style="color:#000000;font-style:normal;font-variant:normal;font-weight:normal;font-stretch:normal;font-size:medium;line-height:normal;font-family:sans-serif;text-indent:0;text-align:start;text-decoration:none;text-decoration-line:none;text-decoration-style:solid;text-decoration-color:#000000;letter-spacing:normal;word-spacing:normal;text-transform:none;direction:ltr;writing-mode:lr-tb;baseline-shift:baseline;text-anchor:start;white-space:normal;clip-rule:nonzero;display:inline;overflow:visible;visibility:visible;opacity:1;isolation:auto;mix-blend-mode:normal;color-interpolation:sRGB;color-interpolation-filters:linearRGB;solid-color:#000000;solid-opacity:1;fill:#000000;fill-opacity:1;fill-rule:nonzero;stroke:none;stroke-width:0.99999994;stroke-linecap:round;stroke-linejoin:round;stroke-miterlimit:4;stroke-dasharray:none;stroke-dashoffset:0;stroke-opacity:1;color-rendering:auto;image-rendering:auto;shape-rendering:auto;text-rendering:auto;enable-background:accumulate" d="m 3.5912662,291.15544 0.026855,0.16121 c 0.043233,0.26003 -0.01561,0.4055 -0.099722,0.46664 -0.084164,0.0611 -0.2404004,0.0724 -0.4743979,-0.0491 -0.04871,-0.0254 -0.097499,-0.0506 -0.1462352,-0.076 0.1837266,-0.2212 0.4217723,-0.39474 0.6934994,-0.50279 z"/><path style="color:#000000;font-style:normal;font-variant:normal;font-weight:normal;font-stretch:normal;font-size:medium;line-height:normal;font-family:sans-serif;text-indent:0;text-align:start;text-decoration:none;text-decoration-line:none;text-decoration-style:solid;text-decoration-color:#000000;letter-spacing:normal;word-spacing:normal;text-transform:none;direction:ltr;writing-mode:lr-tb;baseline-shift:baseline;text-anchor:start;white-space:normal;clip-rule:nonzero;display:inline;overflow:visible;visibility:visible;opacity:1;isolation:auto;mix-blend-mode:normal;color-interpolation:sRGB;color-interpolation-filters:linearRGB;solid-color:#000000;solid-opacity:1;fill:#000000;fill-opacity:1;fill-rule:nonzero;stroke:none;stroke-width:0.99999994;stroke-linecap:round;stroke-linejoin:round;stroke-miterlimit:4;stroke-dasharray:none;stroke-dashoffset:0;stroke-opacity:1;color-rendering:auto;image-rendering:auto;shape-rendering:auto;text-rendering:auto;enable-background:accumulate" d="m 4.8748922,291.15544 c 0.271833,0.10811 0.510249,0.28146 0.6940286,0.50279 l -0.1462617,0.076 c -0.2339975,0.12147 -0.3907631,0.11023 -0.4749006,0.0491 -0.084137,-0.0611 -0.1429544,-0.20656 -0.099722,-0.46664 0.009,-0.0538 0.017992,-0.10748 0.026855,-0.16121 z"/><path style="color:#000000;font-style:normal;font-variant:normal;font-weight:normal;font-stretch:normal;font-size:medium;line-height:normal;font-family:sans-serif;text-indent:0;text-align:start;text-decoration:none;text-decoration-line:none;text-decoration-style:solid;text-decoration-color:#000000;letter-spacing:normal;word-spacing:normal;text-transform:none;direction:ltr;writing-mode:lr-tb;baseline-shift:baseline;text-anchor:start;white-space:normal;clip-rule:nonzero;display:inline;overflow:visible;visibility:visible;opacity:1;isolation:auto;mix-blend-mode:normal;color-interpolation:sRGB;color-interpolation-filters:linearRGB;solid-color:#000000;solid-opacity:1;fill:#000000;fill-opacity:1;fill-rule:nonzero;stroke:none;stroke-width:0.99999994;stroke-linecap:round;stroke-linejoin:round;stroke-miterlimit:4;stroke-dasharray:none;stroke-dashoffset:0;stroke-opacity:1;color-rendering:auto;image-rendering:auto;shape-rendering:auto;text-rendering:auto;enable-background:accumulate" d="m 2.5034582,292.87936 0.1602052,0.0243 c 0.2607205,0.0393 0.3807619,0.14033 0.4129088,0.23926 0.03212,0.0989 -0.00556,0.25114 -0.1932781,0.43614 l -0.1162844,0.1142 c -0.1506802,-0.23829 -0.2444486,-0.51541 -0.2635515,-0.81389 z"/><path style="color:#000000;font-style:normal;font-variant:normal;font-weight:normal;font-stretch:normal;font-size:medium;line-height:normal;font-family:sans-serif;text-indent:0;text-align:start;text-decoration:none;text-decoration-line:none;text-decoration-style:solid;text-decoration-color:#000000;letter-spacing:normal;word-spacing:normal;text-transform:none;direction:ltr;writing-mode:lr-tb;baseline-shift:baseline;text-anchor:start;white-space:normal;clip-rule:nonzero;display:inline;overflow:visible;visibility:visible;opacity:1;isolation:auto;mix-blend-mode:normal;color-interpolation:sRGB;color-interpolation-filters:linearRGB;solid-color:#000000;solid-opacity:1;fill:#000000;fill-opacity:1;fill-rule:nonzero;stroke:none;stroke-width:0.99999994;stroke-linecap:round;stroke-linejoin:round;stroke-miterlimit:4;stroke-dasharray:none;stroke-dashoffset:0;stroke-opacity:1;color-rendering:auto;image-rendering:auto;shape-rendering:auto;text-rendering:auto;enable-background:accumulate" d="m 5.9627002,292.87936 c -0.01905,0.29847 -0.1128713,0.5756 -0.2635515,0.81388 l -0.1157552,-0.11419 c -0.1878542,-0.185 -0.2259277,-0.33721 -0.1938073,-0.43614 0.032147,-0.0989 0.1521883,-0.2 0.4129088,-0.23926 0.053419,-0.008 0.1067858,-0.0161 0.1602052,-0.0244 z"/><path style="color:#000000;font-style:normal;font-variant:normal;font-weight:normal;font-stretch:normal;font-size:medium;line-height:normal;font-family:sans-serif;text-indent:0;text-align:start;text-decoration:none;text-decoration-line:none;text-decoration-style:solid;text-decoration-color:#000000;letter-spacing:normal;word-spacing:normal;text-transform:none;direction:ltr;writing-mode:lr-tb;baseline-shift:baseline;text-anchor:start;white-space:normal;clip-rule:nonzero;display:inline;overflow:visible;visibility:visible;opacity:1;isolation:auto;mix-blend-mode:normal;color-interpolation:sRGB;color-interpolation-filters:linearRGB;solid-color:#000000;solid-opacity:1;fill:#000000;fill-opacity:1;fill-rule:nonzero;stroke:none;stroke-width:0.99999994;stroke-linecap:round;stroke-linejoin:round;stroke-miterlimit:4;stroke-dasharray:none;stroke-dashoffset:0;stroke-opacity:1;color-rendering:auto;image-rendering:auto;shape-rendering:auto;text-rendering:auto;enable-background:accumulate" d="m 4.2330924,293.98317 c 0.1040077,0 0.2370932,0.083 0.3549915,0.31883 0.024077,0.0484 0.048181,0.0969 0.072363,0.14523 -0.1368425,0.0346 -0.2796116,0.0553 -0.427355,0.0553 -0.1477698,0 -0.2905125,-0.0206 -0.4273814,-0.0553 l 0.072363,-0.14523 c 0.1178983,-0.23583 0.2509838,-0.31883 0.3550179,-0.31883 z"/><path d="m 4.7623649,292.76688 a 0.52916208,0.52916212 0 0 1 -0.5291666,0.52917 0.52916208,0.52916212 0 0 1 -0.5291667,-0.52917 0.52916208,0.52916212 0 0 1 0.5291667,-0.52916 0.52916208,0.52916212 0 0 1 0.5291666,0.52916 z" style="display:inline;opacity:1;fill:#000000;fill-opacity:1;stroke:none;stroke-width:1;stroke-linecap:round;stroke-linejoin:round;stroke-miterlimit:4;stroke-dasharray:none;stroke-opacity:1"/><path d="m 4.3402222,291.85246 a 0.13229167,0.13229168 0 0 0 -0.029263,-0.18479 0.13229167,0.13229168 0 0 0 -0.184785,0.0293 0.13229167,0.13229168 0 0 0 0.029263,0.18479 0.13229167,0.13229168 0 0 0 0.184785,-0.0293 z" style="opacity:1;fill:#000000;fill-opacity:1;stroke:none;stroke-width:1;stroke-linecap:round;stroke-linejoin:round;stroke-miterlimit:4;stroke-dasharray:none;stroke-opacity:1"/><path d="m 3.3967445,292.38265 a 0.13229167,0.13229168 0 0 0 -0.184785,-0.0293 0.13229167,0.13229168 0 0 0 -0.029263,0.18479 0.13229167,0.13229168 0 0 0 0.184785,0.0293 0.13229167,0.13229168 0 0 0 0.029263,-0.18479 z" style="opacity:1;fill:#000000;fill-opacity:1;stroke:none;stroke-width:1;stroke-linecap:round;stroke-linejoin:round;stroke-miterlimit:4;stroke-dasharray:none;stroke-opacity:1"/><path d="m 3.6098664,293.44329 a 0.13229167,0.13229168 0 0 0 -0.084958,0.16671 0.13229167,0.13229168 0 0 0 0.1667139,0.0849 0.13229167,0.13229168 0 0 0 0.084931,-0.16669 0.13229167,0.13229168 0 0 0 -0.1666875,-0.085 z" style="opacity:1;fill:#000000;fill-opacity:1;stroke:none;stroke-width:1;stroke-linecap:round;stroke-linejoin:round;stroke-miterlimit:4;stroke-dasharray:none;stroke-opacity:1"/><path d="m 4.6848156,293.56913 a 0.13229167,0.13229168 0 0 0 0.1322916,0.13229 0.13229167,0.13229168 0 0 0 0.1322917,-0.13229 0.13229167,0.13229168 0 0 0 -0.1322917,-0.1323 0.13229167,0.13229168 0 0 0 -0.1322916,0.1323 z" style="opacity:1;fill:#000000;fill-opacity:1;stroke:none;stroke-width:1;stroke-linecap:round;stroke-linejoin:round;stroke-miterlimit:4;stroke-dasharray:none;stroke-opacity:1"/><path d="m 5.1372531,292.58511 a 0.13229167,0.13229168 0 0 0 0.1666875,-0.0849 0.13229167,0.13229168 0 0 0 -0.084931,-0.16669 0.13229167,0.13229168 0 0 0 -0.1667139,0.0849 0.13229167,0.13229168 0 0 0 0.084958,0.16671 z" style="opacity:1;fill:#000000;fill-opacity:1;stroke:none;stroke-width:1;stroke-linecap:round;stroke-linejoin:round;stroke-miterlimit:4;stroke-dasharray:none;stroke-opacity:1"/></g><text x="0" y="23.4666669" fill="#000000" font-size="5px" font-weight="bold" font-family="'Helvetica Neue', Helvetica, Arial-Unicode, Arial, Sans-serif">Created by anbileru adaleru</text><text x="0" y="28.4666669" fill="#000000" font-size="5px" font-weight="bold" font-family="'Helvetica Neue', Helvetica, Arial-Unicode, Arial, Sans-serif">from the Noun Project</text></svg>