<svg xmlns="http://www.w3.org/2000/svg" xmlns:xlink="http://www.w3.org/1999/xlink" version="1.1" x="0px" y="0px" viewBox="0 0 100 125" enable-background="new 0 0 100 100" xml:space="preserve"><g><circle cx="75.026" cy="13.908" r="1.388"/><circle cx="71.847" cy="21.076" r="1.388"/><circle cx="89.673" cy="13.908" r="1.388"/><circle cx="74.69" cy="27.995" r="1.388"/><circle cx="89.952" cy="27.883" r="1.388"/><circle cx="82.176" cy="31.295" r="1.388"/><circle cx="92.43" cy="21.02" r="1.389"/><path d="M83.231,17.657V9.521h-2.11v8.136c-1.467,0.453-2.541,1.803-2.541,3.419c0,1.986,1.61,3.596,3.597,3.596   c1.985,0,3.595-1.61,3.595-3.596C85.771,19.461,84.698,18.109,83.231,17.657z"/></g><g><circle cx="31.874" cy="24.309" r="12.327"/><path d="M91.061,59.62H70.926l1.695-1.471l-3.366-3.882h8.247c0.096,0.009,0.219,0.016,0.364,0.016   c0.886,0,2.623-0.246,4.376-1.883c1.884-1.759,1.815-4.468,1.804-4.685v-2.944h4.589v-7.779c6.269-2.558,10.702-8.71,10.702-15.888   c0-9.462-7.699-17.161-17.161-17.161c-9.463,0-17.161,7.699-17.161,17.161c0,7.178,4.434,13.331,10.702,15.888v7.779h4.587v3.03   c0.009,0.203-0.061,1.343-0.616,1.862c-1,0.933-1.813,0.879-1.774,0.887c-0.105-0.018-0.21-0.027-0.315-0.027h-11.59l-6.92-7.979   l-2.521,2.187l-0.292-0.328c-2.197-2.494-4.771-4.836-9.703-4.836H17.175c-9.102,0-16.453,5.911-16.453,16.681v33.239   c0,7.673,10.137,7.673,10.137,0V57.307h3.85l-0.056,37.616h34.346l0.04-37.31l10.39,11.978l3.087-2.676l1.136,1.275   c0.976,1.1,2.377,1.728,3.847,1.728h23.562c2.844,0,5.149-2.306,5.149-5.149C96.21,61.926,93.904,59.62,91.061,59.62z    M68.401,21.104c0-7.595,6.18-13.775,13.774-13.775c7.596,0,13.774,6.18,13.774,13.775s-6.179,13.773-13.774,13.773   C74.581,34.877,68.401,28.699,68.401,21.104z M59.75,65.066l-9.328-10.754l8.343-7.24l9.33,10.755L59.75,65.066z"/><polygon points="53.446,73.386 53.446,94.923 57.901,94.923 57.901,77.84 95.733,77.84 95.733,73.386  "/></g><text x="0" y="115" fill="#000000" font-size="5px" font-weight="bold" font-family="'Helvetica Neue', Helvetica, Arial-Unicode, Arial, Sans-serif">Created by Luis Prado</text><text x="0" y="120" fill="#000000" font-size="5px" font-weight="bold" font-family="'Helvetica Neue', Helvetica, Arial-Unicode, Arial, Sans-serif">from the Noun Project</text></svg>