<svg xmlns="http://www.w3.org/2000/svg" xmlns:xlink="http://www.w3.org/1999/xlink" version="1.1" x="0px" y="0px" viewBox="0 0 100 125" enable-background="new 0 0 100 100" xml:space="preserve"><g><path d="M55.722,9.607c0,0-3.612,9.797-3.612,11.735c0,1.942,2.062,4.246,2.062,6.427c0,2.185-8.806,13.639-8.806,13.639   s-0.729,1.264-0.368,2.354c0.143,0.431,0.766,1.037,1.533,1.304c1.762,0.612,4.187,1.506,4.187,1.506s0.69,0.164,0.562,1.071   c-0.102,0.716-0.611,1.185-0.611,1.185l-2.75,2.902c0,0-0.611,0.663-0.342,1.324c0.028,0.07,0.063,0.116,0.096,0.17l-9.899-1.062   c0.012-0.446,0-0.893-0.065-1.329c-0.648-4.323-4.873-7.271-9.419-6.658c-2.084-3.802-6.196-5.927-10.458-5.296   c-3.854,0.577-6.837,3.308-8.066,6.81c-0.011,0.004-0.023,0-0.036,0.004c-5.914,1.721-9.722,7.367-8.862,13.132   c0.625,4.177,3.518,7.586,7.606,9.121c-0.085,0.687-0.1,1.384,0.004,2.087c0.325,2.185,1.533,4.098,3.4,5.393   c1.473,1.019,3.217,1.554,5.019,1.554c0.452,0,0.91-0.035,1.365-0.103c2.246-0.334,4.237-1.472,5.625-3.196   c1.346,0.673,2.806,1.041,4.279,1.041c0.456,0,0.914-0.035,1.369-0.102c2.923-0.437,5.52-2.166,6.947-4.624   c1.279-2.202,1.467-4.756,0.594-7.221l11.653-4.086c-0.085,0.216-0.148,0.469-0.148,0.775c0,0.995,0.919,1.608,0.919,1.608   l4.842,1.681c0,0-2.092,7.323-0.242,9.462c4.608,5.333,20.616-0.727,20.616-0.727s3.711-0.251,5.335,0.727   c4.854,2.909,19.682,19.062,19.682,19.062l0.104-81.67H55.722z M30.07,62.646c-0.634,0.224-0.969,0.918-0.746,1.555   c0.175,0.502,0.646,0.815,1.15,0.815c0.135,0,0.27-0.024,0.404-0.07l3.911-1.37c0.812,2.275,0.233,4.076-0.417,5.196   c-1.058,1.824-3.002,3.11-5.2,3.437c-1.398,0.207-2.787-0.031-4.076-0.648c0.521-1.296,0.729-2.687,0.521-4.091   c-0.1-0.663-0.706-1.107-1.386-1.025c-0.666,0.101-1.124,0.722-1.025,1.388c0.228,1.511-0.192,3.033-1.177,4.281   c-1.004,1.271-2.469,2.107-4.129,2.354c-1.651,0.248-3.305-0.124-4.636-1.044c-1.308-0.906-2.152-2.237-2.377-3.747   c-0.356-2.391,0.948-4.79,3.244-5.974c0.598-0.307,0.834-1.042,0.525-1.641c-0.306-0.595-1.035-0.834-1.64-0.524   c-1.779,0.915-3.11,2.373-3.879,4.063c-3.158-1.256-5.377-3.911-5.859-7.137c-0.62-4.143,1.867-8.194,5.879-9.946   c-0.046,0.734-0.027,1.48,0.086,2.236c0.208,1.368,0.66,2.654,1.346,3.826c0.228,0.386,0.635,0.601,1.054,0.601   c0.21,0,0.422-0.054,0.616-0.166c0.581-0.343,0.775-1.09,0.435-1.67c-0.531-0.9-0.879-1.896-1.039-2.952   c-0.654-4.381,2.278-8.464,6.536-9.1c3.035-0.46,6.02,0.969,7.691,3.579c-2.394,1.077-4.2,3.171-4.752,5.71   c-0.144,0.658,0.273,1.308,0.931,1.45c0.664,0.143,1.308-0.273,1.45-0.931c0.506-2.323,2.531-4.135,5.042-4.508   c3.25-0.497,6.291,1.575,6.742,4.604c0.035,0.229,0.004,0.468,0.006,0.702l-3.658-0.393c-0.662-0.083-1.269,0.412-1.342,1.081   c-0.071,0.669,0.412,1.271,1.081,1.342l18.039,1.936L30.07,62.646z M71.837,61.089c-8.02,0-14.545-5.876-14.545-13.099   c0-4.379,2.414-8.45,6.456-10.889c0.509-0.298,1.158-0.139,1.462,0.361c0.301,0.504,0.141,1.158-0.362,1.461   c-3.399,2.048-5.429,5.438-5.429,9.066c0,6.05,5.571,10.972,12.418,10.972c0.587,0,1.063,0.477,1.063,1.063   C72.9,60.61,72.424,61.089,71.837,61.089z"/></g><text x="0" y="115" fill="#000000" font-size="5px" font-weight="bold" font-family="'Helvetica Neue', Helvetica, Arial-Unicode, Arial, Sans-serif">Created by Luis Prado</text><text x="0" y="120" fill="#000000" font-size="5px" font-weight="bold" font-family="'Helvetica Neue', Helvetica, Arial-Unicode, Arial, Sans-serif">from the Noun Project</text></svg>