<svg xmlns="http://www.w3.org/2000/svg" xmlns:xlink="http://www.w3.org/1999/xlink" version="1.1" x="0px" y="0px" viewBox="0 0 100 125" style="enable-background:new 0 0 100 100;" xml:space="preserve"><g><path style="" d="M53.05,20.985c-12.57,0-21.349,9.275-21.349,22.555c0,11.391,6.583,23.901,16.523,27.044   l-0.415,0.622c-0.341,0.511-0.373,1.169-0.083,1.711c0.29,0.542,0.855,0.881,1.47,0.881h1.975v5.5c0,0.921,0.746,1.667,1.667,1.667   c0.921,0,1.667-0.746,1.667-1.667v-5.5h2.399c0.641,0,1.225-0.367,1.502-0.945c0.277-0.577,0.2-1.263-0.201-1.763l-0.389-0.487   c9.973-3.111,16.583-15.65,16.583-27.063C74.399,30.26,65.62,20.985,53.05,20.985z M53.05,68.004   c-9.429,0-18.016-11.66-18.016-24.464c0-11.317,7.408-19.222,18.016-19.222s18.016,7.904,18.016,19.222   C71.066,56.344,62.479,68.004,53.05,68.004z" fill="#231F20"/><path style="" d="M51.598,27.208c-0.46,0.012-0.823,0.395-0.811,0.855c0.012,0.46,0.376,0.832,0.855,0.811   c0.071-0.001,6.306-0.117,10.682,4.143c2.853,2.777,4.299,6.806,4.299,11.973c0,0.46,0.373,0.833,0.833,0.833   s0.833-0.373,0.833-0.833c0-5.633-1.616-10.063-4.803-13.167C58.613,27.078,51.886,27.205,51.598,27.208z" fill="#231F20"/></g><text x="0" y="115" fill="#000000" font-size="5px" font-weight="bold" font-family="'Helvetica Neue', Helvetica, Arial-Unicode, Arial, Sans-serif">Created by NAS</text><text x="0" y="120" fill="#000000" font-size="5px" font-weight="bold" font-family="'Helvetica Neue', Helvetica, Arial-Unicode, Arial, Sans-serif">from the Noun Project</text></svg>