<?xml version="1.0" encoding="utf-8"?>
<!-- Generator: Adobe Illustrator 21.0.0, SVG Export Plug-In . SVG Version: 6.00 Build 0)  -->
<svg version="1.1" id="Layer_1" xmlns="http://www.w3.org/2000/svg" xmlns:xlink="http://www.w3.org/1999/xlink" x="0px" y="0px"
	 viewBox="0 0 612 792" style="enable-background:new 0 0 612 792;" xml:space="preserve">
<style type="text/css">
	.st0{fill:#FFFFFF;stroke:#000000;stroke-miterlimit:10;}
	.st1{fill:#939598;stroke:#000000;stroke-miterlimit:10;}
	.st2{fill:none;stroke:#000000;stroke-miterlimit:10;}
</style>
<rect x="166.9" y="224" class="st0" width="288" height="144"/>
<rect x="285.7" y="231.2" class="st0" width="50.4" height="129.6"/>
<rect x="409" y="269" transform="matrix(-1.836970e-16 1 -1 -1.836970e-16 722.9989 -167.0011)" class="st1" width="72" height="18"/>
<rect x="139.9" y="269" transform="matrix(-1.836970e-16 1 -1 -1.836970e-16 453.8839 102.1184)" class="st1" width="72" height="18"/>
<rect x="184.9" y="224.9" class="st1" width="72" height="18"/>
<rect x="364.9" y="350" class="st1" width="72" height="18"/>
<g>
	<rect x="166.9" y="80" class="st0" width="288" height="144"/>
	<rect x="278.5" y="176" class="st0" width="64.8" height="43.2"/>
	<circle class="st0" cx="310.9" cy="129.4" r="36"/>
	<circle class="st0" cx="400" cy="129" r="36"/>
	<circle class="st0" cx="218" cy="129.4" r="36"/>
	<rect x="184.9" y="206" class="st1" width="72" height="18"/>
	<rect x="364.9" y="206" class="st1" width="72" height="18"/>
</g>
<rect x="184.9" y="206" class="st1" width="72" height="18"/>
<g>
	
		<rect x="166.9" y="368" transform="matrix(-1 -2.244810e-10 2.244810e-10 -1 621.7654 880)" class="st0" width="288" height="144"/>
	
		<rect x="278.5" y="372.8" transform="matrix(-1 -2.245108e-10 2.245108e-10 -1 621.7654 788.8)" class="st0" width="64.8" height="43.2"/>
	<circle class="st0" cx="310.9" cy="462.6" r="36"/>
	<circle class="st0" cx="221.8" cy="463" r="36"/>
	<circle class="st0" cx="403.8" cy="462.6" r="36"/>
	<rect x="364.9" y="368" transform="matrix(-1 -4.489399e-11 4.489399e-11 -1 801.7677 754)" class="st1" width="72" height="18"/>
	<rect x="184.9" y="368" transform="matrix(-1 -4.489399e-11 4.489399e-11 -1 441.7677 754)" class="st1" width="72" height="18"/>
</g>
<g>
	
		<rect x="-49.1" y="296" transform="matrix(2.693775e-10 -1 1 2.693775e-10 -273.1173 462.8827)" class="st0" width="288" height="144"/>
	
		<rect x="108.1" y="346.4" transform="matrix(2.693952e-10 -1 1 2.693952e-10 -227.5173 508.4827)" class="st0" width="64.8" height="43.2"/>
	<circle class="st0" cx="72.3" cy="368" r="36"/>
	<circle class="st0" cx="71.9" cy="278.9" r="36"/>
	<circle class="st0" cx="72.3" cy="460.9" r="36"/>
	
		<rect x="121.9" y="449" transform="matrix(8.978780e-11 -1 1 8.978780e-11 -300.1184 615.8839)" class="st1" width="72" height="18"/>
	
		<rect x="121.9" y="269" transform="matrix(8.978780e-11 -1 1 8.978780e-11 -120.1184 435.8839)" class="st1" width="72" height="18"/>
</g>
<g>
	
		<rect x="382.9" y="296" transform="matrix(-2.693812e-10 1 -1 -2.693812e-10 894.8828 -158.8827)" class="st0" width="288" height="144"/>
	
		<rect x="448.9" y="346.4" transform="matrix(-2.693678e-10 1 -1 -2.693678e-10 849.2827 -113.2827)" class="st0" width="64.8" height="43.2"/>
	<circle class="st0" cx="549.5" cy="368" r="36"/>
	<circle class="st0" cx="549.9" cy="457.1" r="36"/>
	<circle class="st0" cx="549.5" cy="275.1" r="36"/>
	
		<rect x="427.9" y="269" transform="matrix(-8.978791e-11 1 -1 -8.978791e-11 741.8816 -185.8839)" class="st1" width="72" height="18"/>
	
		<rect x="427.9" y="449" transform="matrix(-8.978791e-11 1 -1 -8.978791e-11 921.8816 -5.8839)" class="st1" width="72" height="18"/>
</g>
<g>
	<g>
		
			<ellipse transform="matrix(0.7071 -0.7071 0.7071 0.7071 -143.3805 246.8489)" class="st0" cx="226.3" cy="296.5" rx="36" ry="36"/>
		<line class="st2" x1="200.8" y1="271" x2="251.7" y2="322"/>
	</g>
	<line class="st2" x1="251.7" y1="271" x2="200.8" y2="322"/>
</g>
<g>
	<g>
		<ellipse transform="matrix(0.7071 -0.7071 0.7071 0.7071 -95.0752 362.468)" class="st0" cx="390" cy="296" rx="36" ry="36"/>
		<line class="st2" x1="364.5" y1="270.5" x2="415.5" y2="321.5"/>
	</g>
	<line class="st2" x1="415.5" y1="270.5" x2="364.5" y2="321.5"/>
</g>
</svg>
